ffmpeg started on 2016-12-03 at 15:12:10
Report written to "Output/x264/results/ffmpeg/Told_town_cross_2160p50placebo12000k.log"
Command line:
Tools/ffmpeg/ffmpeg -i Output/x264/encoded/old_town_cross_2160p50placebo12000k.mkv -c:v rawvideo -pix_fmt yuv420p Output/x264/transcoded/old_town_cross_2160p50placebo12000k.yuv
ffmpeg version N-82227-gdb23fde Copyright (c) 2000-2016 the FFmpeg developers
  built with gcc 5.4.0 (Ubuntu 5.4.0-6ubuntu1~16.04.2) 20160609
  configuration: --prefix=/home/jaroslav/ffmpeg_build --pkg-config-flags=--static --extra-cflags=-I/home/jaroslav/ffmpeg_build/include --extra-ldflags=-L/home/jaroslav/ffmpeg_build/lib --bindir=/home/jaroslav/bin --enable-gpl --enable-libass --enable-libfdk-aac --enable-libfreetype --enable-libmp3lame --enable-libopus --enable-libtheora --enable-libvorbis --enable-libvpx --enable-libx264 --enable-libx265 --enable-nvenc --enable-libmfx --enable-libxvid --enable-libgsm --enable-libopencore-amrnb --enable-version3 --enable-nonfree
  libavutil      55. 35.100 / 55. 35.100
  libavcodec     57. 66.101 / 57. 66.101
  libavformat    57. 57.100 / 57. 57.100
  libavdevice    57.  2.100 / 57.  2.100
  libavfilter     6. 66.100 /  6. 66.100
  libswscale      4.  3.100 /  4.  3.100
  libswresample   2.  4.100 /  2.  4.100
  libpostproc    54.  2.100 / 54.  2.100
Input #0, matroska,webm, from 'Output/x264/encoded/old_town_cross_2160p50placebo12000k.mkv':
  Metadata:
    ENCODER         : Lavf57.57.100
  Duration: 00:00:10.00, start: 0.000000, bitrate: 11867 kb/s
    Stream #0:0: Video: h264 (High), yuv420p(progressive), 3840x2160 [SAR 1:1 DAR 16:9], 50 fps, 50 tbr, 1k tbn, 100 tbc (default)
    Metadata:
      ENCODER         : Lavc57.66.101 libx264
      DURATION        : 00:00:10.000000000
Output #0, rawvideo, to 'Output/x264/transcoded/old_town_cross_2160p50placebo12000k.yuv':
  Metadata:
    encoder         : Lavf57.57.100
    Stream #0:0: Video: rawvideo (I420 / 0x30323449), yuv420p, 3840x2160 [SAR 1:1 DAR 16:9], q=2-31, 200 kb/s, 50 fps, 50 tbn, 50 tbc (default)
    Metadata:
      DURATION        : 00:00:10.000000000
      encoder         : Lavc57.66.101 rawvideo
Stream mapping:
  Stream #0:0 -> #0:0 (h264 (native) -> rawvideo (native))
Press [q] to stop, [?] for help
frame=   13 fps=0.0 q=-0.0 size=  157950kB time=00:00:00.26 bitrate=4976640.0kbits/s speed=0.504x    frame=   30 fps= 29 q=-0.0 size=  364500kB time=00:00:00.60 bitrate=4976640.0kbits/s speed=0.583x    frame=   47 fps= 30 q=-0.0 size=  571050kB time=00:00:00.94 bitrate=4976640.0kbits/s speed=0.609x    frame=   64 fps= 31 q=-0.0 size=  777600kB time=00:00:01.28 bitrate=4976640.0kbits/s speed=0.622x    frame=   81 fps= 31 q=-0.0 size=  984150kB time=00:00:01.62 bitrate=4976640.0kbits/s speed=0.629x    frame=   98 fps= 32 q=-0.0 size= 1190700kB time=00:00:01.96 bitrate=4976640.0kbits/s speed=0.634x    frame=  115 fps= 32 q=-0.0 size= 1397250kB time=00:00:02.30 bitrate=4976640.0kbits/s speed=0.637x    frame=  132 fps= 32 q=-0.0 size= 1603800kB time=00:00:02.64 bitrate=4976640.0kbits/s speed=0.64x    frame=  149 fps= 32 q=-0.0 size= 1810350kB time=00:00:02.98 bitrate=4976640.0kbits/s speed=0.641x    frame=  166 fps= 32 q=-0.0 size= 2016900kB time=00:00:03.32 bitrate=4976640.0kbits/s speed=0.643x    frame=  183 fps= 32 q=-0.0 size= 2223450kB time=00:00:03.66 bitrate=4976640.0kbits/s speed=0.644x    frame=  200 fps= 32 q=-0.0 size= 2430000kB time=00:00:04.00 bitrate=4976640.0kbits/s speed=0.645x    frame=  217 fps= 32 q=-0.0 size= 2636550kB time=00:00:04.34 bitrate=4976640.0kbits/s speed=0.646x    frame=  234 fps= 32 q=-0.0 size= 2843100kB time=00:00:04.68 bitrate=4976640.0kbits/s speed=0.647x    frame=  251 fps= 32 q=-0.0 size= 3049650kB time=00:00:05.02 bitrate=4976640.0kbits/s speed=0.648x    frame=  267 fps= 32 q=-0.0 size= 3244050kB time=00:00:05.34 bitrate=4976640.0kbits/s speed=0.647x    frame=  284 fps= 32 q=-0.0 size= 3450600kB time=00:00:05.68 bitrate=4976640.0kbits/s speed=0.647x    frame=  301 fps= 32 q=-0.0 size= 3657150kB time=00:00:06.02 bitrate=4976640.0kbits/s speed=0.647x    frame=  318 fps= 32 q=-0.0 size= 3863700kB time=00:00:06.36 bitrate=4976640.0kbits/s speed=0.647x    frame=  329 fps= 32 q=-0.0 size= 3997350kB time=00:00:06.58 bitrate=4976640.0kbits/s speed=0.637x    frame=  346 fps= 32 q=-0.0 size= 4203900kB time=00:00:06.92 bitrate=4976640.0kbits/s speed=0.637x    frame=  362 fps= 32 q=-0.0 size= 4398300kB time=00:00:07.24 bitrate=4976640.0kbits/s speed=0.637x    frame=  378 fps= 32 q=-0.0 size= 4592700kB time=00:00:07.56 bitrate=4976640.0kbits/s speed=0.637x    frame=  394 fps= 32 q=-0.0 size= 4787100kB time=00:00:07.88 bitrate=4976640.0kbits/s speed=0.637x    frame=  410 fps= 32 q=-0.0 size= 4981500kB time=00:00:08.20 bitrate=4976640.0kbits/s speed=0.637x    frame=  426 fps= 32 q=-0.0 size= 5175900kB time=00:00:08.52 bitrate=4976640.0kbits/s speed=0.637x    frame=  442 fps= 32 q=-0.0 size= 5370300kB time=00:00:08.84 bitrate=4976640.0kbits/s speed=0.637x    frame=  458 fps= 32 q=-0.0 size= 5564700kB time=00:00:09.16 bitrate=4976640.0kbits/s speed=0.637x    frame=  474 fps= 32 q=-0.0 size= 5759100kB time=00:00:09.48 bitrate=4976640.0kbits/s speed=0.637x    frame=  482 fps= 31 q=-0.0 size= 5856300kB time=00:00:09.64 bitrate=4976640.0kbits/s speed=0.626x    frame=  499 fps= 31 q=-0.0 size= 6062850kB time=00:00:09.98 bitrate=4976640.0kbits/s speed=0.627x    frame=  500 fps= 31 q=-0.0 Lsize= 6075000kB time=00:00:10.00 bitrate=4976640.0kbits/s speed=0.626x    
video:6075000kB audio:0kB subtitle:0kB other streams:0kB global headers:0kB muxing overhead: 0.000000%
